RobotoFlexCondensed-Light.ufo
<glyph name="at" format="2">
  <advance width="1890"/>
  <unicode hex="0040"/>
  <outline>
    <contour>
      <point x="588.5079346405383" y="400.0" type="curve" smooth="yes"/>
      <point x="589" y="775"/>
      <point x="780" y="1052"/>
      <point x="1011.8548758169583" y="1052.0" type="curve" smooth="yes"/>
      <point x="1105" y="1052"/>
      <point x="1193" y="992"/>
      <point x="1239.5294248366083" y="946.0" type="curve"/>
      <point x="1300.7563660131" y="946.0" type="line"/>
      <point x="1185.4470849673216" y="350.0" type="line" smooth="yes"/>
      <point x="1147" y="155"/>
      <point x="1236" y="91"/>
      <point x="1355.1040261438134" y="91.29815686273668" type="curve" smooth="yes"/>
      <point x="1540" y="91"/>
      <point x="1668" y="315"/>
      <point x="1667.6961568627366" y="650.0" type="curve" smooth="yes"/>
      <point x="1668" y="1041"/>
      <point x="1421" y="1385"/>
      <point x="987.441542483625" y="1385.0233464052399" type="curve" smooth="yes"/>
      <point x="553" y="1385"/>
      <point x="226" y="973"/>
      <point x="225.8891372548767" y="460.0" type="curve" smooth="yes"/>
      <point x="226" y="-57"/>
      <point x="509" y="-345"/>
      <point x="892.0477516339884" y="-345.02334640524" type="curve" smooth="yes"/>
      <point x="1071" y="-345"/>
      <point x="1190" y="-303"/>
      <point x="1274.7725882352984" y="-255.02334640523998" type="curve"/>
      <point x="1274.7725882352984" y="-356.0" type="line"/>
      <point x="1184" y="-415"/>
      <point x="1071" y="-446"/>
      <point x="892.0477516339884" y="-446.0" type="curve" smooth="yes"/>
      <point x="460" y="-446"/>
      <point x="114" y="-103"/>
      <point x="114.0" y="460.0" type="curve" smooth="yes"/>
      <point x="114" y="1023"/>
      <point x="506" y="1486"/>
      <point x="987.441542483625" y="1486.0" type="curve" smooth="yes"/>
      <point x="1467" y="1486"/>
      <point x="1776" y="1119"/>
      <point x="1776.204457516375" y="650.0" type="curve" smooth="yes"/>
      <point x="1776" y="261"/>
      <point x="1591" y="0"/>
      <point x="1355.47069281048" y="0.0" type="curve" smooth="yes"/>
      <point x="1218" y="0"/>
      <point x="1120" y="73"/>
      <point x="1075.8161045751817" y="184.87333333333333" type="curve"/>
      <point x="1029" y="71"/>
      <point x="941" y="0"/>
      <point x="838.8494509804216" y="0.0" type="curve" smooth="yes"/>
      <point x="685" y="0"/>
      <point x="589" y="159"/>
    </contour>
    <contour>
      <point x="701.783908496725" y="400.0" type="curve" smooth="yes"/>
      <point x="702" y="203"/>
      <point x="758" y="100"/>
      <point x="862.3630980392284" y="100.48482352940334" type="curve" smooth="yes"/>
      <point x="960" y="100"/>
      <point x="1036" y="177"/>
      <point x="1081.179764705895" y="390.98366013071336" type="curve" smooth="yes"/>
      <point x="1185.1863986927951" y="905.3460130719067" type="line"/>
      <point x="1147" y="939"/>
      <point x="1083" y="958"/>
      <point x="1026.10420261441" y="958.1593464052401" type="curve" smooth="yes"/>
      <point x="838" y="958"/>
      <point x="702" y="722"/>
    </contour>
  </outline>
</glyph>
<glyph name="J" format="2">
  <advance width="901"/>
  <unicode hex="004A"/>
  <outline>
    <contour>
      <point x="25.0" y="420.488235294105" type="curve" smooth="yes"/>
      <point x="25.0" y="430.488235294105" type="line"/>
      <point x="140.50980392154332" y="430.488235294105" type="line"/>
      <point x="140.50980392154332" y="388.488235294105" type="line" smooth="yes"/>
      <point x="141" y="162"/>
      <point x="226" y="75"/>
      <point x="385.935947712445" y="75.22581699345" type="curve" smooth="yes"/>
      <point x="545" y="75"/>
      <point x="631" y="176"/>
      <point x="631.362091503275" y="413.488235294105" type="curve" smooth="yes"/>
      <point x="631.362091503275" y="1456.0" type="line"/>
      <point x="745.088562091485" y="1456.0" type="line"/>
      <point x="745.088562091485" y="445.488235294105" type="line" smooth="yes"/>
      <point x="745" y="113"/>
      <point x="608" y="-30"/>
      <point x="385.935947712445" y="-30.0" type="curve" smooth="yes"/>
      <point x="162" y="-30"/>
      <point x="25" y="101"/>
    </contour>
  </outline>
</glyph>
<glyph name="V" format="2">
  <advance width="1022"/>
  <unicode hex="0056"/>
  <outline>
    <contour>
      <point x="0.0" y="1456.0" type="line"/>
      <point x="119.26895424839833" y="1456.0" type="line"/>
      <point x="463.0098039215433" y="273.88431372547336" type="line" smooth="yes"/>
      <point x="479" y="221"/>
      <point x="500" y="154"/>
      <point x="511.3477124182683" y="95.55032679738" type="curve"/>
      <point x="518.286834733864" y="95.55032679738" type="line"/>
      <point x="528" y="154"/>
      <point x="548" y="221"/>
      <point x="564.0686274509467" y="273.88431372547336" type="curve" smooth="yes"/>
      <point x="909.6594771241632" y="1456.0" type="line"/>
      <point x="1022.1777777778016" y="1456.0" type="line"/>
      <point x="586.4" y="-10.0" type="line"/>
      <point x="435.06111111113506" y="-10.0" type="line"/>
    </contour>
  </outline>
</glyph>
<glyph name="j" format="2">
  <advance width="426"/>
  <unicode hex="006A"/>
  <outline>
    <contour>
      <point x="-91.89346405225668" y="-412.8666666666667" type="curve"/>
      <point x="-91.89346405225668" y="-315.6826797385733" type="line"/>
      <point x="-67" y="-324"/>
      <point x="-22" y="-335"/>
      <point x="13.468627450946663" y="-334.9660130719067" type="curve" smooth="yes"/>
      <point x="105" y="-335"/>
      <point x="157" y="-276"/>
      <point x="157.0" y="-128.03267973857334" type="curve" smooth="yes"/>
      <point x="157.0" y="1076.857142857143" type="line"/>
      <point x="268.65980392154336" y="1076.857142857143" type="line"/>
      <point x="268.65980392154336" y="-90.0" type="line" smooth="yes"/>
      <point x="269" y="-331"/>
      <point x="186" y="-436"/>
      <point x="26.42581699345" y="-436.0" type="curve" smooth="yes"/>
      <point x="-16" y="-436"/>
      <point x="-66" y="-422"/>
    </contour>
    <contour>
      <point x="146.66732026142668" y="1395.726890756311" type="curve" smooth="yes"/>
      <point x="147" y="1439"/>
      <point x="171" y="1474"/>
      <point x="212.58398692809334" y="1473.9098972922643" type="curve" smooth="yes"/>
      <point x="255" y="1474"/>
      <point x="279" y="1439"/>
      <point x="278.50065359476" y="1395.726890756311" type="curve" smooth="yes"/>
      <point x="279" y="1350"/>
      <point x="254" y="1317"/>
      <point x="213.07581699345002" y="1316.827217553691" type="curve" smooth="yes"/>
      <point x="171" y="1317"/>
      <point x="147" y="1350"/>
    </contour>
  </outline>
</glyph>
<glyph name="x" format="2">
  <advance width="874"/>
  <unicode hex="0078"/>
  <outline>
    <contour>
      <point x="20.0" y="0.0" type="line"/>
      <point x="389.528928104585" y="577.6752380952381" type="line"/>
      <point x="401.54705882350834" y="577.9619047619047" type="line"/>
      <point x="713.0445228758366" y="1076.857142857143" type="line"/>
      <point x="835.3502875817317" y="1076.857142857143" type="line"/>
      <point x="476.19120261441003" y="513.1819047619048" type="line"/>
      <point x="461.89640522874834" y="512.8952380952381" type="line"/>
      <point x="141.353764705895" y="0.0" type="line"/>
    </contour>
    <contour>
      <point x="40.75132026142667" y="1076.857142857143" type="line"/>
      <point x="166.12040522874833" y="1076.857142857143" type="line"/>
      <point x="482.93921568624495" y="582.2619047619048" type="line"/>
      <point x="484.2160130719067" y="582.9785714285714" type="line"/>
      <point x="855.0349411764917" y="0.0" type="line"/>
      <point x="729.1740261438133" y="0.0" type="line"/>
      <point x="403.40653594774335" y="512.8952380952381" type="line"/>
      <point x="400.977071895415" y="513.1819047619048" type="line"/>
    </contour>
  </outline>
</glyph>
<glyph name="cent" format="2">
  <advance width="907"/>
  <unicode hex="00A2"/>
  <outline>
    <contour>
      <point x="499.1" y="236.85" type="curve" smooth="yes"/>
      <point x="717" y="237"/>
      <point x="755" y="363"/>
      <point x="747.7333333333333" y="516.9666666666667" type="curve"/>
      <point x="858.55" y="516.9666666666667" type="line"/>
      <point x="867" y="304"/>
      <point x="788" y="136"/>
      <point x="501.23333333333335" y="136.41666666666666" type="curve" smooth="yes"/>
      <point x="276" y="136"/>
      <point x="101" y="306"/>
      <point x="100.66666666666666" y="676.4166666666666" type="curve" smooth="yes"/>
      <point x="100.66666666666666" y="700.5833333333334" type="line" smooth="yes"/>
      <point x="101" y="1071"/>
      <point x="273" y="1241"/>
      <point x="509.76666666666665" y="1240.5833333333333" type="curve" smooth="yes"/>
      <point x="766" y="1241"/>
      <point x="866" y="1073"/>
      <point x="858.55" y="883.5333333333333" type="curve"/>
      <point x="747.7333333333333" y="883.5333333333333" type="line"/>
      <point x="755" y="1029"/>
      <point x="712" y="1139"/>
      <point x="508.7" y="1139.0833333333333" type="curve" smooth="yes"/>
      <point x="332" y="1139"/>
      <point x="217" y="1011"/>
      <point x="217.18333333333334" y="732.5833333333334" type="curve" smooth="yes"/>
      <point x="217.18333333333334" y="644.4166666666666" type="line" smooth="yes"/>
      <point x="217" y="367"/>
      <point x="334" y="237"/>
    </contour>
    <contour>
      <point x="408.3" y="0.0" type="line"/>
      <point x="408.3" y="208.33333333333334" type="line"/>
      <point x="410.43333333333334" y="222.33333333333334" type="line"/>
      <point x="410.43333333333334" y="708.0" type="line"/>
      <point x="507.43333333333334" y="708.0" type="line"/>
      <point x="507.43333333333334" y="221.33333333333334" type="line"/>
      <point x="509.56666666666666" y="211.33333333333334" type="line"/>
      <point x="509.56666666666666" y="0.0" type="line"/>
    </contour>
    <contour>
      <point x="410.43333333333334" y="708.0" type="line"/>
      <point x="410.43333333333334" y="1182.0" type="line"/>
      <point x="408.3" y="1192.0" type="line"/>
      <point x="408.3" y="1402.0" type="line"/>
      <point x="509.56666666666666" y="1402.0" type="line"/>
      <point x="509.56666666666666" y="1192.0" type="line"/>
      <point x="507.43333333333334" y="1179.0" type="line"/>
      <point x="507.43333333333334" y="708.0" type="line"/>
    </contour>
  </outline>
</glyph>
<glyph name="sterling" format="2">
  <advance width="864"/>
  <unicode hex="00A3"/>
  <outline>
    <contour>
      <point x="856.8333333333333" y="0.0" type="line"/>
      <point x="36.0" y="0.0" type="line"/>
      <point x="36.0" y="97.65" type="line"/>
      <point x="77.66666666666667" y="97.65" type="line" smooth="yes"/>
      <point x="228" y="98"/>
      <point x="322" y="236"/>
      <point x="298.73333333333335" y="436.9" type="curve" smooth="yes"/>
      <point x="227.96666666666667" y="1039.0" type="line" smooth="yes"/>
      <point x="192" y="1351"/>
      <point x="293" y="1482"/>
      <point x="519.7833333333333" y="1482.45" type="curve" smooth="yes"/>
      <point x="720" y="1482"/>
      <point x="824" y="1374"/>
      <point x="823.5833333333333" y="1131.6666666666667" type="curve" smooth="yes"/>
      <point x="823.5833333333333" y="1115.6666666666667" type="line"/>
      <point x="709.7" y="1115.6666666666667" type="line"/>
      <point x="709.7" y="1131.6666666666667" type="line" smooth="yes"/>
      <point x="705" y="1290"/>
      <point x="651" y="1375"/>
      <point x="521.7833333333333" y="1374.9333333333334" type="curve" smooth="yes"/>
      <point x="379" y="1375"/>
      <point x="324" y="1281"/>
      <point x="347.8833333333333" y="1039.0" type="curve" smooth="yes"/>
      <point x="405.3333333333333" y="463.56666666666666" type="line" smooth="yes"/>
      <point x="424" y="281"/>
      <point x="372" y="161"/>
      <point x="278.2833333333333" y="106.51666666666667" type="curve"/>
      <point x="856.8333333333333" y="106.51666666666667" type="line"/>
    </contour>
    <contour>
      <point x="681.5" y="683.7333333333333" type="line"/>
      <point x="66.33333333333333" y="683.7333333333333" type="line"/>
      <point x="66.33333333333333" y="768.5666666666667" type="line"/>
      <point x="681.5" y="768.5666666666667" type="line"/>
    </contour>
  </outline>
</glyph>
<glyph name="germandbls" format="2">
  <advance width="1177"/>
  <unicode hex="00DF"/>
  <outline>
    <contour>
      <point x="312.3333333333333" y="1092.0" type="curve" name="hr00"/>
      <point x="312.3333333333333" y="0.0" type="line"/>
      <point x="201.75" y="0.0" type="line"/>
      <point x="201.75" y="1092.0" type="line" smooth="yes"/>
      <point x="202" y="1374"/>
      <point x="331" y="1534"/>
      <point x="569.3333333333334" y="1534.0" type="curve" smooth="yes"/>
      <point x="777" y="1534"/>
      <point x="876" y="1418"/>
      <point x="875.6" y="1215.0" type="curve" smooth="yes"/>
      <point x="876" y="1124"/>
      <point x="852" y="1044"/>
      <point x="797.1166666666667" y="975.8666666666667" type="curve" smooth="yes"/>
      <point x="755" y="925"/>
      <point x="706" y="859"/>
      <point x="705.7166666666667" y="816.3833333333333" type="curve" smooth="yes"/>
      <point x="706" y="755"/>
      <point x="789" y="680"/>
      <point x="898.7" y="598.2166666666667" type="curve" smooth="yes"/>
      <point x="1021" y="507"/>
      <point x="1068" y="430"/>
      <point x="1068.1" y="282.0" type="curve" smooth="yes"/>
      <point x="1068" y="84"/>
      <point x="975" y="-20"/>
      <point x="753.0" y="-20.0" type="curve" smooth="yes"/>
      <point x="560" y="-20"/>
      <point x="463" y="96"/>
      <point x="463.3333333333333" y="283.73333333333335" type="curve" smooth="yes"/>
      <point x="463.3333333333333" y="304.0" type="line"/>
      <point x="576.1666666666666" y="304.0" type="line"/>
      <point x="576.1666666666666" y="289.26666666666665" type="line" smooth="yes"/>
      <point x="576" y="161"/>
      <point x="643" y="82"/>
      <point x="755.0" y="81.55" type="curve" smooth="yes"/>
      <point x="884" y="82"/>
      <point x="956" y="162"/>
      <point x="956.1666666666666" y="302.0" type="curve" smooth="yes"/>
      <point x="956" y="373"/>
      <point x="921" y="439"/>
      <point x="817.2" y="519.1666666666666" type="curve" smooth="yes"/>
      <point x="720" y="594"/>
      <point x="599" y="679"/>
      <point x="598.8333333333334" y="798.4333333333333" type="curve" smooth="yes"/>
      <point x="599" y="893"/>
      <point x="653" y="956"/>
      <point x="696.0" y="1015.25" type="curve" smooth="yes"/>
      <point x="745" y="1083"/>
      <point x="764" y="1145"/>
      <point x="763.6666666666666" y="1208.3" type="curve" smooth="yes"/>
      <point x="764" y="1351"/>
      <point x="703" y="1432"/>
      <point x="565.3333333333334" y="1432.45" type="curve" smooth="yes"/>
      <point x="406" y="1432"/>
      <point x="312" y="1315"/>
    </contour>
  </outline>
</glyph>
<glyph name="schwa" format="2">
  <advance width="869"/>
  <unicode hex="0259"/>
  <outline>
    <contour>
      <point x="784.3166666666666" y="542.0" type="curve" smooth="yes"/>
      <point x="784.3166666666666" y="510.0" type="line" smooth="yes"/>
      <point x="784.3166666666666" y="159.6346666666666"/>
      <point x="652.5623333333333" y="-30.0"/>
      <point x="403.3" y="-30.0" type="curve" smooth="yes"/>
      <point x="176.92933333333332" y="-30.0"/>
      <point x="52.71666666666667" y="141.724"/>
      <point x="52.71666666666667" y="492.0" type="curve" smooth="yes"/>
      <point x="52.71666666666667" y="543.6333333333333" type="line"/>
      <point x="718.3333333333334" y="543.6333333333333" type="line"/>
      <point x="718.3333333333334" y="444.3666666666667" type="line"/>
      <point x="169.76666666666665" y="444.3666666666667" type="line"/>
      <point x="169.48333333333335" y="428.9666666666667" type="line"/>
      <point x="169.86299999999997" y="180.37433333333328"/>
      <point x="254.12466666666663" y="72.55"/>
      <point x="401.0333333333333" y="72.55" type="curve" smooth="yes"/>
      <point x="567.9526666666667" y="72.55"/>
      <point x="666.7" y="227.50566666666663"/>
      <point x="666.7" y="510.0" type="curve" smooth="yes"/>
      <point x="666.7" y="542.0" type="line" smooth="yes"/>
      <point x="666.7" y="823.5340000000001"/>
      <point x="564.5383333333334" y="979.45"/>
      <point x="372.58333333333337" y="979.45" type="curve" smooth="yes"/>
      <point x="292.94266666666664" y="979.45"/>
      <point x="212.33233333333334" y="937.1473333333333"/>
      <point x="137.71666666666667" y="837.1833333333334" type="curve"/>
      <point x="60.0" y="903.5166666666667" type="line"/>
      <point x="146.02800000000002" y="1028.7173333333335"/>
      <point x="252.78733333333332" y="1082.0"/>
      <point x="372.58333333333337" y="1082.0" type="curve" smooth="yes"/>
      <point x="638.6850000000002" y="1082.0"/>
      <point x="784.3166666666666" y="892.3653333333334"/>
    </contour>
  </outline>
</glyph>
<glyph name="breve" format="2">
  <advance width="1023"/>
  <unicode hex="02D8"/>
  <outline>
    <contour>
      <point x="765.4666666666667" y="1505.1" type="curve"/>
      <point x="831.0833333333334" y="1469.0166666666667" type="line"/>
      <point x="785.1436666666666" y="1320.9913333333334"/>
      <point x="670.0723333333333" y="1197.2833333333333"/>
      <point x="513.7166666666667" y="1197.2833333333333" type="curve" smooth="yes"/>
      <point x="360.376" y="1197.2833333333333"/>
      <point x="243.514" y="1315.5796666666665"/>
      <point x="194.91666666666666" y="1469.3" type="curve"/>
      <point x="263.0833333333333" y="1505.1" type="line"/>
      <point x="314.785" y="1385.5049999999999"/>
      <point x="402.62166666666667" y="1304.6666666666667"/>
      <point x="513.2833333333333" y="1304.6666666666667" type="curve" smooth="yes"/>
      <point x="625.8433333333332" y="1304.6666666666667"/>
      <point x="713.3853333333334" y="1383.9863333333333"/>
    </contour>
  </outline>
</glyph>
<glyph name="dieresistonos" format="2">
  <advance width="1050"/>
  <unicode hex="0385"/>
  <outline>
    <contour>
      <point x="296.0" y="1218.3333333333333" type="curve" smooth="yes"/>
      <point x="239.385" y="1218.3333333333333"/>
      <point x="209.21666666666667" y="1255.2103333333334"/>
      <point x="209.21666666666667" y="1302.2666666666667" type="curve" smooth="yes"/>
      <point x="209.21666666666667" y="1350.0823333333335"/>
      <point x="239.385" y="1387.7666666666667"/>
      <point x="296.0" y="1387.7666666666667" type="curve" smooth="yes"/>
      <point x="353.955" y="1387.7666666666667"/>
      <point x="383.7833333333333" y="1350.0823333333335"/>
      <point x="383.7833333333333" y="1302.2666666666667" type="curve" smooth="yes"/>
      <point x="383.7833333333333" y="1255.2103333333334"/>
      <point x="353.955" y="1218.3333333333333"/>
    </contour>
    <contour>
      <point x="544.5666666666666" y="1212.9833333333333" type="line"/>
      <point x="471.56666666666666" y="1220.2666666666667" type="line"/>
      <point x="504.1666666666667" y="1613.0" type="line"/>
      <point x="632.8333333333334" y="1613.0" type="line"/>
    </contour>
    <contour>
      <point x="752.5" y="1216.3333333333333" type="curve" smooth="yes"/>
      <point x="695.5053333333334" y="1216.3333333333333"/>
      <point x="665.7166666666667" y="1253.2103333333334"/>
      <point x="665.7166666666667" y="1300.2666666666667" type="curve" smooth="yes"/>
      <point x="665.7166666666667" y="1348.0823333333335"/>
      <point x="695.5053333333334" y="1385.7666666666667"/>
      <point x="752.5" y="1385.7666666666667" type="curve" smooth="yes"/>
      <point x="809.115" y="1385.7666666666667"/>
      <point x="840.2833333333333" y="1348.0823333333335"/>
      <point x="840.2833333333333" y="1300.2666666666667" type="curve" smooth="yes"/>
      <point x="840.2833333333333" y="1253.2103333333334"/>
      <point x="809.115" y="1216.3333333333333"/>
    </contour>
  </outline>
</glyph>
<glyph name="Lambda" format="2">
  <advance width="1028"/>
  <unicode hex="039B"/>
  <outline>
    <contour>
      <point x="0.0" y="0.0" type="line"/>
      <point x="433.85" y="1466.0" type="line"/>
      <point x="593.4833333333333" y="1466.0" type="line"/>
      <point x="1028.4" y="0.0" type="line"/>
      <point x="908.9166666666666" y="0.0" type="line"/>
      <point x="563.0166666666667" y="1197.4" type="line" smooth="yes"/>
      <point x="545.3733333333333" y="1255.5336666666667"/>
      <point x="529.6626666666667" y="1304.31"/>
      <point x="515.95" y="1354.7833333333333" type="curve"/>
      <point x="507.3666666666667" y="1354.7833333333333" type="line"/>
      <point x="494.6143333333334" y="1304.31"/>
      <point x="474.04366666666664" y="1254.5733333333333"/>
      <point x="457.45" y="1197.4" type="curve" smooth="yes"/>
      <point x="112.55" y="0.0" type="line"/>
    </contour>
  </outline>
</glyph>
<glyph name="Psi" format="2">
  <advance width="1467"/>
  <unicode hex="03A8"/>
  <outline>
    <contour>
      <point x="672.8833333333333" y="0.0" type="line"/>
      <point x="672.8833333333333" y="1456.0" type="line"/>
      <point x="791.9666666666667" y="1456.0" type="line"/>
      <point x="791.9666666666667" y="0.0" type="line"/>
    </contour>
    <contour>
      <point x="715.1666666666666" y="361.0" type="line"/>
      <point x="702.1666666666666" y="361.0" type="line" smooth="yes"/>
      <point x="305.30333333333334" y="361.0"/>
      <point x="155.0" y="535.38"/>
      <point x="155.0" y="928.0" type="curve" smooth="yes"/>
      <point x="155.0" y="1456.0" type="line"/>
      <point x="269.31666666666666" y="1456.0" type="line"/>
      <point x="269.31666666666666" y="926.0" type="line" smooth="yes"/>
      <point x="269.31666666666666" y="550.4873333333333"/>
      <point x="432.41599999999994" y="471.3333333333333"/>
      <point x="712.8333333333334" y="471.3333333333333" type="curve" smooth="yes"/>
      <point x="715.1666666666666" y="471.3333333333333" type="line"/>
    </contour>
    <contour>
      <point x="750.75" y="361.0" type="line"/>
      <point x="750.75" y="471.3333333333333" type="line"/>
      <point x="750.7333333333333" y="471.3333333333333" type="line" smooth="yes"/>
      <point x="1033.6296666666667" y="471.3333333333333"/>
      <point x="1196.6" y="550.4873333333333"/>
      <point x="1196.6" y="926.0" type="curve" smooth="yes"/>
      <point x="1196.6" y="1456.0" type="line"/>
      <point x="1310.9166666666667" y="1456.0" type="line"/>
      <point x="1310.9166666666667" y="928.0" type="line" smooth="yes"/>
      <point x="1310.9166666666667" y="535.38"/>
      <point x="1160.6133333333335" y="361.0"/>
      <point x="763.75" y="361.0" type="curve" smooth="yes"/>
    </contour>
  </outline>
</glyph>
<glyph name="Omega" format="2">
  <advance width="1081"/>
  <unicode hex="03A9"/>
  <anchor x="34.266666666666666" y="1456.0" name="GRK_topleft"/>
  <outline>
    <contour>
      <point x="17.933333333333337" y="0.0" type="line"/>
      <point x="17.933333333333337" y="102.43333333333334" type="line"/>
      <point x="355.31666666666666" y="102.43333333333334" type="line"/>
      <point x="355.31666666666666" y="321.06666666666666" type="line"/>
      <point x="120.12433333333334" y="404.14666666666665"/>
      <point x="17.933333333333337" y="565.6066666666666"/>
      <point x="17.933333333333337" y="845.6666666666666" type="curve"/>
      <point x="17.933333333333337" y="901.6666666666666" type="line"/>
      <point x="17.933333333333337" y="1276.8666666666668"/>
      <point x="222.19199999999995" y="1486.0"/>
      <point x="539.8166666666666" y="1486.0" type="curve"/>
      <point x="858.8706666666667" y="1486.0"/>
      <point x="1063.4833333333333" y="1276.8666666666668"/>
      <point x="1063.4833333333333" y="901.6666666666666" type="curve"/>
      <point x="1063.4833333333333" y="845.6666666666666" type="line"/>
      <point x="1063.4833333333333" y="565.6066666666666"/>
      <point x="956.1120000000001" y="404.14666666666665"/>
      <point x="731.4833333333333" y="321.06666666666666" type="curve"/>
      <point x="731.4833333333333" y="102.43333333333334" type="line"/>
      <point x="1062.7666666666667" y="102.43333333333334" type="line"/>
      <point x="1062.7666666666667" y="0.0" type="line"/>
      <point x="625.35" y="0.0" type="line"/>
      <point x="625.35" y="394.7166666666667" type="line"/>
      <point x="837.2263333333334" y="431.455"/>
      <point x="946.8166666666666" y="620.5079999999999"/>
      <point x="946.8166666666666" y="847.8166666666667" type="curve"/>
      <point x="946.8166666666666" y="910.2666666666667" type="line"/>
      <point x="946.8166666666666" y="1216.2780000000002"/>
      <point x="808.509" y="1380.3666666666666"/>
      <point x="539.8166666666666" y="1380.3666666666666" type="curve"/>
      <point x="271.12433333333337" y="1380.3666666666666"/>
      <point x="133.53333333333333" y="1216.2780000000002"/>
      <point x="133.53333333333333" y="910.2666666666667" type="curve"/>
      <point x="133.53333333333333" y="847.8166666666667" type="line"/>
      <point x="133.53333333333333" y="620.5079999999999"/>
      <point x="241.22133333333335" y="431.455"/>
      <point x="453.56666666666666" y="394.7166666666667" type="curve"/>
      <point x="453.56666666666666" y="0.0" type="line"/>
    </contour>
  </outline>
</glyph>
<glyph name="theta" format="2">
  <advance width="987"/>
  <unicode hex="03B8"/>
  <outline>
    <contour>
      <point x="492.26666666666665" y="-30.0" type="curve" smooth="yes"/>
      <point x="253.61266666666668" y="-30.0"/>
      <point x="95.0" y="136.86666666666667"/>
      <point x="95.0" y="632.6666666666666" type="curve"/>
      <point x="95.0" y="903.3333333333334" type="line"/>
      <point x="95.0" y="1385.7333333333331"/>
      <point x="253.042" y="1556.0"/>
      <point x="490.26666666666665" y="1556.0" type="curve" smooth="yes"/>
      <point x="732.561" y="1556.0"/>
      <point x="888.3166666666666" y="1385.7333333333331"/>
      <point x="888.3166666666666" y="903.3333333333334" type="curve"/>
      <point x="888.3166666666666" y="632.6666666666666" type="line"/>
      <point x="888.3166666666666" y="136.86666666666667"/>
      <point x="734.561" y="-30.0"/>
    </contour>
    <contour>
      <point x="492.26666666666665" y="71.15" type="curve" smooth="yes"/>
      <point x="668.2533333333333" y="71.15"/>
      <point x="775.0" y="185.32733333333329"/>
      <point x="775.0" y="613.1" type="curve"/>
      <point x="775.0" y="924.0666666666667" type="line" smooth="yes"/>
      <point x="784.4469999999999" y="1355.1893333333333"/>
      <point x="676.7946666666667" y="1454.85"/>
      <point x="490.26666666666665" y="1454.85" type="curve" smooth="yes"/>
      <point x="290.562" y="1454.85"/>
      <point x="208.75" y="1331.181"/>
      <point x="208.75" y="924.0666666666667" type="curve" smooth="yes"/>
      <point x="208.75" y="613.1" type="line" smooth="yes"/>
      <point x="208.75" y="195.89099999999996"/>
      <point x="317.419" y="71.15"/>
    </contour>
    <contour>
      <point x="137.18333333333334" y="741.9809523809524" type="line"/>
      <point x="137.18333333333334" y="842.3976190476191" type="line"/>
      <point x="841.9333333333334" y="842.3976190476191" type="line"/>
      <point x="841.9333333333334" y="741.9809523809524" type="line"/>
    </contour>
  </outline>
</glyph>
<glyph name="iota" format="2">
  <advance width="512"/>
  <unicode hex="03B9"/>
  <anchor x="190.2" y="1076.857142857143" name="GRK_top"/>
  <outline>
    <contour>
      <point x="341.5" y="-30.0" type="curve" smooth="yes"/>
      <point x="216.545" y="-30.0"/>
      <point x="138.0" y="59.22933333333333"/>
      <point x="138.0" y="262.15" type="curve" smooth="yes"/>
      <point x="138.0" y="1076.857142857143" type="line"/>
      <point x="250.25" y="1076.857142857143" type="line"/>
      <point x="250.25" y="254.68333333333334" type="line" smooth="yes"/>
      <point x="250.25" y="113.894"/>
      <point x="285.539" y="73.06666666666666"/>
      <point x="370.3833333333333" y="73.06666666666666" type="curve" smooth="yes"/>
      <point x="403.63766666666663" y="73.06666666666666"/>
      <point x="431.1933333333333" y="78.47533333333334"/>
      <point x="461.56666666666666" y="89.01666666666667" type="curve"/>
      <point x="461.56666666666666" y="-5.016666666666667" type="line"/>
      <point x="435.32500000000005" y="-18.21566666666667"/>
      <point x="392.73266666666666" y="-30.0"/>
    </contour>
  </outline>
</glyph>
<glyph name="lambda" format="2">
  <advance width="867"/>
  <unicode hex="03BB"/>
  <outline>
    <contour>
      <point x="0.0" y="0.0" type="line"/>
      <point x="399.4214285714286" y="1091.7119047619049" type="line"/>
      <point x="363.70952380952383" y="1185.2452380952382" type="line" smooth="yes"/>
      <point x="276.76904761904757" y="1418.982714285714"/>
      <point x="225.31442857142855" y="1450.4666666666667"/>
      <point x="117.60714285714286" y="1450.4666666666667" type="curve"/>
      <point x="72.49061904761903" y="1450.4666666666667"/>
      <point x="43.14009523809524" y="1437.439"/>
      <point x="25.828571428571426" y="1429.6" type="curve"/>
      <point x="25.828571428571426" y="1534.5666666666666" type="line"/>
      <point x="64.06642857142857" y="1549.8873333333333"/>
      <point x="96.64766666666665" y="1556.0"/>
      <point x="147.52619047619046" y="1556.0" type="curve" smooth="yes"/>
      <point x="291.9335238095238" y="1556.0"/>
      <point x="363.82280952380955" y="1476.4723333333334"/>
      <point x="446.0190476190476" y="1252.0" type="curve" smooth="yes"/>
      <point x="877.8904761904762" y="0.0" type="line"/>
      <point x="749.1904761904761" y="0.0" type="line"/>
      <point x="490.51190476190476" y="776.7928571428572" type="line" smooth="yes"/>
      <point x="480.9723809523809" y="808.9464761904762"/>
      <point x="451.84366666666665" y="913.8610476190477"/>
      <point x="453.2761904761905" y="937.004761904762" type="curve"/>
      <point x="447.62619047619046" y="937.004761904762" type="line"/>
      <point x="438.9321428571428" y="905.2659047619047"/>
      <point x="425.7570476190477" y="843.0781904761905"/>
      <point x="404.4" y="776.7928571428572" type="curve" smooth="yes"/>
      <point x="125.91666666666666" y="0.0" type="line"/>
    </contour>
  </outline>
</glyph>
<glyph name="mu" format="2">
  <advance width="1037"/>
  <unicode hex="03BC"/>
  <outline>
    <contour>
      <point x="148.0" y="-416.0" type="line"/>
      <point x="148.0" y="1076.857142857143" type="line"/>
      <point x="260.25" y="1076.857142857143" type="line"/>
      <point x="260.25" y="208.05" type="line"/>
      <point x="278.85366666666664" y="132.11666666666665"/>
      <point x="343.9146666666667" y="83.28333333333333"/>
      <point x="473.85" y="83.28333333333333" type="curve" smooth="yes"/>
      <point x="641.752" y="83.28333333333333"/>
      <point x="732.2166666666667" y="175.22766666666666"/>
      <point x="732.2166666666667" y="342.75" type="curve" smooth="yes"/>
      <point x="732.2166666666667" y="1077.1404761904762" type="line"/>
      <point x="845.1833333333334" y="1077.1404761904762" type="line"/>
      <point x="845.1833333333334" y="189.06666666666666" type="line" smooth="yes"/>
      <point x="845.1833333333334" y="91.42533333333333"/>
      <point x="869.7543333333333" y="79.46666666666667"/>
      <point x="919.1333333333333" y="79.46666666666667" type="curve" smooth="yes"/>
      <point x="936.3523333333334" y="79.46666666666667"/>
      <point x="962.8349999999999" y="85.87"/>
      <point x="980.3666666666667" y="95.25" type="curve"/>
      <point x="980.3666666666667" y="-1.9833333333333343" type="line"/>
      <point x="960.155" y="-13.083000000000002"/>
      <point x="903.491" y="-19.333333333333336"/>
      <point x="878.5" y="-19.333333333333336" type="curve" smooth="yes"/>
      <point x="803.7280000000001" y="-19.333333333333336"/>
      <point x="754.9996666666667" y="11.257999999999996"/>
      <point x="741.6666666666666" y="135.83333333333334" type="curve"/>
      <point x="739.95" y="135.83333333333334" type="line"/>
      <point x="697.3826666666668" y="65.595"/>
      <point x="607.1173333333334" y="-21.066666666666666"/>
      <point x="464.05" y="-21.066666666666666" type="curve" smooth="yes"/>
      <point x="372.84066666666666" y="-21.066666666666666"/>
      <point x="299.043" y="22.88133333333333"/>
      <point x="260.25" y="86.93333333333334" type="curve"/>
      <point x="260.25" y="-416.0" type="line"/>
    </contour>
  </outline>
</glyph>
<glyph name="rho" format="2">
  <advance width="976"/>
  <unicode hex="03C1"/>
  <outline>
    <contour>
      <point x="112.33333333333334" y="-416.0" type="line"/>
      <point x="112.33333333333334" y="568.0" type="line" smooth="yes"/>
      <point x="112.33333333333334" y="898.98"/>
      <point x="258.4373333333333" y="1099.0"/>
      <point x="501.06666666666666" y="1099.0" type="curve" smooth="yes"/>
      <point x="756.359" y="1099.0"/>
      <point x="890.6666666666666" y="863.3038095238096"/>
      <point x="890.6666666666666" y="566.1428571428571" type="curve" smooth="yes"/>
      <point x="890.6666666666666" y="518.9904761904762" type="line" smooth="yes"/>
      <point x="890.6666666666666" y="194.96252380952382"/>
      <point x="751.4883333333332" y="-20.0"/>
      <point x="534.9666666666667" y="-20.0" type="curve"/>
      <point x="373.40733333333327" y="-20.0"/>
      <point x="270.456" y="42.854"/>
      <point x="224.58333333333334" y="111.28333333333333" type="curve"/>
      <point x="224.58333333333334" y="-416.0" type="line"/>
    </contour>
    <contour>
      <point x="493.91666666666663" y="81.15" type="curve" smooth="yes"/>
      <point x="678.5463333333335" y="81.15"/>
      <point x="776.5666666666666" y="209.9655238095238"/>
      <point x="776.5666666666666" y="497.65714285714284" type="curve" smooth="yes"/>
      <point x="776.5666666666666" y="571.0761904761905" type="line" smooth="yes"/>
      <point x="776.5666666666666" y="857.2714761904763"/>
      <point x="669.5324761904761" y="997.85"/>
      <point x="492.3142857142857" y="997.85" type="curve" smooth="yes"/>
      <point x="288.3918095238095" y="997.85"/>
      <point x="224.58333333333334" y="854.0426666666667"/>
      <point x="224.58333333333334" y="573.0" type="curve"/>
      <point x="224.58333333333334" y="237.76666666666665" type="line"/>
      <point x="255.649" y="173.04466666666667"/>
      <point x="344.3950000000001" y="81.15"/>
    </contour>
  </outline>
</glyph>
<glyph name="finalsigma" format="2">
  <advance width="850"/>
  <unicode hex="03C2"/>
  <outline>
    <contour>
      <point x="626.0666666666667" y="-348.0" type="line"/>
      <point x="644.849" y="-289.08466666666664"/>
      <point x="660.3166666666666" y="-231.95633333333336"/>
      <point x="660.3166666666666" y="-167.03333333333333" type="curve"/>
      <point x="660.3166666666666" y="-78.37"/>
      <point x="626.8136666666667" y="-32.85433333333334"/>
      <point x="482.25" y="3.75" type="curve" smooth="yes"/>
      <point x="383.85" y="29.2" type="line" smooth="yes"/>
      <point x="170.23166666666665" y="86.68599999999999"/>
      <point x="85.0" y="192.39719047619042"/>
      <point x="85.0" y="507.2238095238095" type="curve" smooth="yes"/>
      <point x="85.0" y="561.1666666666666" type="line" smooth="yes"/>
      <point x="85.0" y="918.6722857142857"/>
      <point x="250.19766666666666" y="1106.857142857143"/>
      <point x="495.2166666666667" y="1106.857142857143" type="curve" smooth="yes"/>
      <point x="736.1486666666667" y="1106.857142857143"/>
      <point x="857.7666666666667" y="911.6951428571429"/>
      <point x="857.7666666666667" y="738.7904761904762" type="curve" smooth="yes"/>
      <point x="857.7666666666667" y="729.8547619047619" type="line"/>
      <point x="750.8" y="729.8547619047619" type="line"/>
      <point x="750.8" y="739.8571428571429" type="line" smooth="yes"/>
      <point x="750.8" y="884.4878095238095"/>
      <point x="686.1996666666668" y="1005.3571428571429"/>
      <point x="493.0833333333333" y="1005.3571428571429" type="curve" smooth="yes"/>
      <point x="285.7853333333333" y="1005.3571428571429"/>
      <point x="198.38333333333333" y="847.2598095238095"/>
      <point x="198.38333333333333" y="557.6666666666666" type="curve" smooth="yes"/>
      <point x="198.38333333333333" y="509.5238095238095" type="line" smooth="yes"/>
      <point x="198.38333333333333" y="277.04019047619045"/>
      <point x="256.87399999999997" y="183.76033333333334"/>
      <point x="407.26666666666665" y="142.6" type="curve" smooth="yes"/>
      <point x="506.56666666666666" y="116.01666666666667" type="line" smooth="yes"/>
      <point x="699.0129999999999" y="63.890666666666675"/>
      <point x="770.4333333333334" y="-15.512000000000015"/>
      <point x="770.4333333333334" y="-127.0" type="curve" smooth="yes"/>
      <point x="771.4830000000001" y="-203.00033333333334"/>
      <point x="753.4943333333333" y="-283.9703333333334"/>
      <point x="727.8333333333334" y="-348.0" type="curve"/>
    </contour>
  </outline>
</glyph>
<glyph name="psi" format="2">
  <advance width="1222"/>
  <unicode hex="03C8"/>
  <outline>
    <contour>
      <point x="595.35" y="-416.0" type="line"/>
      <point x="595.35" y="-20.0" type="line"/>
      <point x="305.2176666666666" y="-12.362"/>
      <point x="138.0" y="154.38"/>
      <point x="138.0" y="480.0" type="curve" smooth="yes"/>
      <point x="138.0" y="1076.857142857143" type="line"/>
      <point x="250.25" y="1076.857142857143" type="line"/>
      <point x="250.25" y="490.0" type="line" smooth="yes"/>
      <point x="250.25" y="248.55433333333332"/>
      <point x="334.0276666666666" y="93.65633333333334"/>
      <point x="595.35" y="81.21666666666667" type="curve"/>
      <point x="595.35" y="1536.0" type="line"/>
      <point x="707.6" y="1536.0" type="line"/>
      <point x="707.6" y="81.21666666666667" type="line"/>
      <point x="970.3516666666667" y="93.65633333333334"/>
      <point x="1053.7666666666667" y="248.55433333333332"/>
      <point x="1053.7666666666667" y="490.0" type="curve" smooth="yes"/>
      <point x="1053.7666666666667" y="1076.857142857143" type="line"/>
      <point x="1167.0833333333333" y="1076.857142857143" type="line"/>
      <point x="1167.0833333333333" y="480.0" type="line" smooth="yes"/>
      <point x="1167.0833333333333" y="154.38"/>
      <point x="998.2013333333334" y="-12.362"/>
      <point x="707.6" y="-20.0" type="curve"/>
      <point x="707.6" y="-416.0" type="line"/>
    </contour>
  </outline>
</glyph>
<glyph name="omega" format="2">
  <advance width="1426"/>
  <unicode hex="03C9"/>
  <anchor x="708.1833333333333" y="1076.857142857143" name="GRK_top"/>
  <outline>
    <contour>
      <point x="440.75" y="-30.0" type="curve" smooth="yes"/>
      <point x="225.0993333333333" y="-30.0"/>
      <point x="95.0" y="149.25028571428567"/>
      <point x="95.0" y="488.5" type="curve" smooth="yes"/>
      <point x="95.0" y="752.6618571428571"/>
      <point x="177.62866666666667" y="952.2148095238095"/>
      <point x="280.18333333333334" y="1076.857142857143" type="curve"/>
      <point x="404.73333333333335" y="1076.857142857143" type="line"/>
      <point x="303.1836666666666" y="949.4454761904761"/>
      <point x="209.81666666666666" y="750.4161904761904"/>
      <point x="209.81666666666666" y="486.5" type="curve" smooth="yes"/>
      <point x="209.81666666666666" y="219.69961904761902"/>
      <point x="290.25966666666665" y="71.56666666666666"/>
      <point x="455.81666666666666" y="71.56666666666666" type="curve"/>
      <point x="588.9010000000001" y="71.56666666666666"/>
      <point x="655.9666666666667" y="166.3793333333333"/>
      <point x="655.9666666666667" y="376.0" type="curve" smooth="yes"/>
      <point x="655.9666666666667" y="719.0952380952381" type="line"/>
      <point x="768.9333333333334" y="719.0952380952381" type="line"/>
      <point x="768.9333333333334" y="376.0" type="line" smooth="yes"/>
      <point x="768.9333333333334" y="169.23799999999997"/>
      <point x="834.5313333333334" y="71.56666666666666"/>
      <point x="972.2833333333333" y="71.56666666666666" type="curve" smooth="yes"/>
      <point x="1130.6936666666666" y="71.56666666666666"/>
      <point x="1214.0166666666667" y="213.9822857142857"/>
      <point x="1214.0166666666667" y="486.5" type="curve"/>
      <point x="1214.0166666666667" y="750.4161904761904"/>
      <point x="1122.8623333333335" y="949.4454761904761"/>
      <point x="1019.8833333333333" y="1076.857142857143" type="curve"/>
      <point x="1144.7166666666667" y="1076.857142857143" type="line"/>
      <point x="1251.5593333333334" y="945.0681428571429"/>
      <point x="1330.9666666666667" y="747.6058571428572"/>
      <point x="1330.9666666666667" y="499.1666666666667" type="curve"/>
      <point x="1330.9666666666667" y="139.90628571428567"/>
      <point x="1197.3046666666667" y="-30.0"/>
      <point x="983.0833333333334" y="-30.0" type="curve" smooth="yes"/>
      <point x="840.3509999999999" y="-30.0"/>
      <point x="730.072" y="70.11233333333334"/>
      <point x="706.6666666666666" y="254.11666666666667" type="curve"/>
      <point x="717.1666666666666" y="254.11666666666667" type="line"/>
      <point x="693.7613333333334" y="70.11233333333334"/>
      <point x="586.341" y="-30.0"/>
    </contour>
  </outline>
</glyph>
<glyph name="kaisymbol" format="2">
  <advance width="1009"/>
  <unicode hex="03D7"/>
  <outline>
    <contour>
      <point x="354.9761904761905" y="-540.55" type="line"/>
      <point x="269.3095238095238" y="-475.3333333333333" type="line"/>
      <point x="708.8761904761905" y="0.02142857142857224" type="line"/>
      <point x="389.5214285714286" y="498.6404761904762" type="line"/>
      <point x="259.5333333333333" y="498.6404761904762" type="line"/>
      <point x="259.5333333333333" y="0.0" type="line"/>
      <point x="148.0" y="0.0" type="line"/>
      <point x="148.0" y="1076.857142857143" type="line"/>
      <point x="259.5333333333333" y="1076.857142857143" type="line"/>
      <point x="259.5333333333333" y="599.2071428571429" type="line"/>
      <point x="392.87142857142857" y="599.2071428571429" type="line"/>
      <point x="681.7047619047619" y="1076.857142857143" type="line"/>
      <point x="791.7380952380952" y="1076.857142857143" type="line"/>
      <point x="478.0571428571428" y="555.1261904761905" type="line"/>
      <point x="829.0166666666667" y="-14.469047619047618" type="line"/>
    </contour>
  </outline>
</glyph>
<glyph name="Dje" format="2">
  <advance width="1478"/>
  <unicode hex="0402"/>
  <guideline x="568.0" y="625.0" angle="90.0" identifier="YDADns81zF"/>
  <outline>
    <contour>
      <point x="441.26666666666665" y="0.0" type="line"/>
      <point x="441.26666666666665" y="1353.5" type="line"/>
      <point x="24.0" y="1353.5" type="line"/>
      <point x="24.0" y="1456.0" type="line"/>
      <point x="970.5333333333333" y="1456.0" type="line"/>
      <point x="970.5333333333333" y="1353.5" type="line"/>
      <point x="554.8666666666667" y="1353.5" type="line"/>
      <point x="554.8666666666667" y="0.0" type="line"/>
    </contour>
    <contour>
      <point x="965.1333333333333" y="0.0" type="line"/>
      <point x="965.1333333333333" y="109.3" type="line"/>
      <point x="973.1333333333333" y="109.3" type="line" smooth="yes"/>
      <point x="1126.6303333333335" y="109.3"/>
      <point x="1205.9666666666667" y="207.80950267953764"/>
      <point x="1205.9666666666667" y="407.0" type="curve" smooth="yes"/>
      <point x="1205.9666666666667" y="424.43333333333334" type="line" smooth="yes"/>
      <point x="1205.9666666666667" y="646.851"/>
      <point x="1066.8336666666667" y="747.8626666666667"/>
      <point x="864.65" y="746.4333333333333" type="curve" smooth="yes"/>
      <point x="702.3192536687261" y="745.004"/>
      <point x="606.0063333333334" y="729.085"/>
      <point x="497.5333333333333" y="701.95" type="curve"/>
      <point x="497.5333333333333" y="806.2333333333333" type="line"/>
      <point x="645.1790000000001" y="832.877"/>
      <point x="703.5777109768158" y="850.0"/>
      <point x="857.3166666666667" y="850.0" type="curve" smooth="yes"/>
      <point x="1148.4316666666666" y="850.0"/>
      <point x="1321.35" y="720.2423333333334"/>
      <point x="1321.35" y="426.98333333333335" type="curve" smooth="yes"/>
      <point x="1321.35" y="408.28333333333336" type="line" smooth="yes"/>
      <point x="1321.35" y="143.4323333333333"/>
      <point x="1197.896" y="0.0"/>
      <point x="973.1333333333333" y="0.0" type="curve" smooth="yes"/>
    </contour>
  </outline>
</glyph>
<glyph name="Be" format="2">
  <advance width="1043"/>
  <unicode hex="0411"/>
  <outline>
    <contour>
      <point x="170.0" y="0.0" type="line"/>
      <point x="170.0" y="1456.0" type="line"/>
      <point x="891.6666666666667" y="1456.0" type="line"/>
      <point x="891.6666666666667" y="1353.5" type="line"/>
      <point x="285.3833333333333" y="1353.5" type="line"/>
      <point x="285.3833333333333" y="860.2" type="line"/>
      <point x="554.3833333333333" y="860.2" type="line" smooth="yes"/>
      <point x="826.3810000000001" y="860.2"/>
      <point x="961.1833333333334" y="719.3453333333333"/>
      <point x="961.1833333333334" y="429.95" type="curve" smooth="yes"/>
      <point x="961.1833333333334" y="141.60433333333327"/>
      <point x="826.3810000000001" y="0.0"/>
      <point x="554.3833333333333" y="0.0" type="curve" smooth="yes"/>
    </contour>
    <contour>
      <point x="285.3833333333333" y="756.6333333333333" type="line"/>
      <point x="285.3833333333333" y="102.5" type="line"/>
      <point x="554.3833333333333" y="102.5" type="line" smooth="yes"/>
      <point x="771.4856666666667" y="102.5"/>
      <point x="845.8" y="230.424"/>
      <point x="845.8" y="429.95" type="curve" smooth="yes"/>
      <point x="845.8" y="631.8656666666667"/>
      <point x="771.8483333333334" y="756.6333333333333"/>
      <point x="553.3166666666667" y="756.6333333333333" type="curve" smooth="yes"/>
    </contour>
  </outline>
</glyph>
<glyph name="Ef" format="2">
  <advance width="1325"/>
  <unicode hex="0424"/>
  <outline>
    <contour>
      <point x="720.3166666666666" y="1476.0" type="line"/>
      <point x="720.3166666666666" y="1270.8166666666666" type="line"/>
      <point x="713.3666666666667" y="1270.8166666666666" type="line" smooth="yes"/>
      <point x="1074.9656666666667" y="1270.8166666666666"/>
      <point x="1269.8666666666668" y="1067.646"/>
      <point x="1269.8666666666668" y="740.15" type="curve" smooth="yes"/>
      <point x="1269.8666666666668" y="411.6936666666667"/>
      <point x="1074.0053333333333" y="208.33333333333334"/>
      <point x="713.3666666666667" y="208.33333333333334" type="curve" smooth="yes"/>
      <point x="720.3166666666666" y="208.33333333333334" type="line"/>
      <point x="720.3166666666666" y="-20.0" type="line"/>
      <point x="604.4666666666667" y="-20.0" type="line"/>
      <point x="604.4666666666667" y="208.33333333333334" type="line"/>
      <point x="611.4166666666666" y="208.33333333333334" type="line" smooth="yes"/>
      <point x="252.20733333333334" y="208.33333333333334"/>
      <point x="54.91666666666667" y="411.977"/>
      <point x="54.91666666666667" y="740.4333333333333" type="curve" smooth="yes"/>
      <point x="54.91666666666667" y="1067.9293333333335"/>
      <point x="251.24699999999996" y="1270.8166666666666"/>
      <point x="611.4166666666666" y="1270.8166666666666" type="curve" smooth="yes"/>
      <point x="604.4666666666667" y="1270.8166666666666" type="line"/>
      <point x="604.4666666666667" y="1476.0" type="line"/>
    </contour>
    <contour>
      <point x="713.3666666666667" y="1167.1166666666666" type="curve" smooth="yes"/>
      <point x="720.3166666666666" y="1167.1166666666666" type="line"/>
      <point x="720.3166666666666" y="312.0333333333333" type="line"/>
      <point x="713.3666666666667" y="312.0333333333333" type="line" smooth="yes"/>
      <point x="1028.825" y="312.0333333333333"/>
      <point x="1156.5" y="475.96066666666667"/>
      <point x="1156.5" y="739.5833333333334" type="curve" smooth="yes"/>
      <point x="1156.5" y="1001.4863333333333"/>
      <point x="1028.825" y="1167.1166666666666"/>
    </contour>
    <contour>
      <point x="611.4166666666666" y="1167.1166666666666" type="line" smooth="yes"/>
      <point x="295.9583333333333" y="1167.1166666666666"/>
      <point x="168.28333333333333" y="1003.6623333333333"/>
      <point x="168.28333333333333" y="741.0" type="curve" smooth="yes"/>
      <point x="168.28333333333333" y="478.1366666666667"/>
      <point x="295.9583333333333" y="312.0333333333333"/>
      <point x="611.4166666666666" y="312.0333333333333" type="curve" smooth="yes"/>
      <point x="604.4666666666667" y="312.0333333333333" type="line"/>
      <point x="604.4666666666667" y="1167.1166666666666" type="line"/>
    </contour>
  </outline>
</glyph>
<glyph name="nje" format="2">
  <advance width="1487"/>
  <unicode hex="045A"/>
  <outline>
    <contour>
      <point x="148.0" y="1052.0" type="line"/>
      <point x="259.5333333333333" y="1052.0" type="line"/>
      <point x="259.5333333333333" y="628.5166666666667" type="line"/>
      <point x="700.1166666666667" y="628.5166666666667" type="line"/>
      <point x="700.1166666666667" y="1052.0" type="line"/>
      <point x="811.65" y="1052.0" type="line"/>
      <point x="811.65" y="628.5166666666667" type="line"/>
      <point x="1012.75" y="628.5166666666667" type="line" smooth="yes"/>
      <point x="1262.7493333333332" y="628.5166666666667"/>
      <point x="1401.8833333333332" y="507.40833333333336"/>
      <point x="1401.8833333333332" y="315.9" type="curve" smooth="yes"/>
      <point x="1401.8833333333332" y="124.39166666666665"/>
      <point x="1262.7493333333332" y="0.0"/>
      <point x="1012.75" y="0.0" type="curve" smooth="yes"/>
      <point x="700.1166666666667" y="0.0" type="line"/>
      <point x="700.1166666666667" y="527.95" type="line"/>
      <point x="259.5333333333333" y="527.95" type="line"/>
      <point x="259.5333333333333" y="0.0" type="line"/>
      <point x="148.0" y="0.0" type="line"/>
    </contour>
    <contour>
      <point x="1012.75" y="527.95" type="curve" smooth="yes"/>
      <point x="811.65" y="527.95" type="line"/>
      <point x="811.65" y="100.56666666666666" type="line"/>
      <point x="1012.75" y="100.56666666666666" type="line" smooth="yes"/>
      <point x="1213.8616666666667" y="100.56666666666666"/>
      <point x="1287.4833333333333" y="189.65937681159878"/>
      <point x="1287.4833333333333" y="315.9" type="curve" smooth="yes"/>
      <point x="1287.4833333333333" y="440.7671555555206"/>
      <point x="1213.8616666666667" y="526.9896666666667"/>
    </contour>
  </outline>
</glyph>
<glyph name="uni20B2" format="2">
  <advance width="981"/>
  <unicode hex="20B2"/>
  <outline>
    <contour>
      <point x="481.28333333333336" y="-190.0" type="line"/>
      <point x="481.28333333333336" y="57.0" type="line"/>
      <point x="487.1" y="71.0" type="line"/>
      <point x="487.1" y="708.0" type="line"/>
      <point x="572.7333333333333" y="708.0" type="line"/>
      <point x="572.7333333333333" y="70.0" type="line"/>
      <point x="579.6833333333334" y="57.85" type="line"/>
      <point x="579.6833333333334" y="-190.0" type="line"/>
    </contour>
    <contour>
      <point x="487.1" y="708.0" type="line"/>
      <point x="487.1" y="1399.3333333333333" type="line"/>
      <point x="482.1333333333333" y="1409.3333333333333" type="line"/>
      <point x="482.1333333333333" y="1582.0" type="line"/>
      <point x="577.7" y="1582.0" type="line"/>
      <point x="577.7" y="1409.3333333333333" type="line"/>
      <point x="572.7333333333333" y="1398.4833333333333" type="line"/>
      <point x="572.7333333333333" y="708.0" type="line"/>
    </contour>
    <contour>
      <point x="939.4333333333334" y="725.0" type="line"/>
      <point x="939.4333333333334" y="452.0" type="line" smooth="yes"/>
      <point x="939.4333333333334" y="193.38"/>
      <point x="794.8866666666667" y="-5.0"/>
      <point x="549.6666666666666" y="-5.0" type="curve" smooth="yes"/>
      <point x="253.5266666666667" y="-5.0"/>
      <point x="106.9" y="201.64"/>
      <point x="106.9" y="542.0" type="curve" smooth="yes"/>
      <point x="106.9" y="897.0" type="line" smooth="yes"/>
      <point x="106.9" y="1297.66"/>
      <point x="261.0066666666667" y="1485.0"/>
      <point x="527.6666666666666" y="1485.0" type="curve" smooth="yes"/>
      <point x="766.1866666666666" y="1485.0"/>
      <point x="884.9373333333334" y="1361.3576666666665"/>
      <point x="937.7333333333333" y="1277.1833333333334" type="curve"/>
      <point x="863.3" y="1192.6333333333334" type="line"/>
      <point x="782.8776666666666" y="1303.8980000000001"/>
      <point x="688.2256666666667" y="1372.7833333333333"/>
      <point x="535.6666666666666" y="1372.7833333333333" type="curve" smooth="yes"/>
      <point x="321.3336666666667" y="1372.7833333333333"/>
      <point x="227.08333333333334" y="1210.349"/>
      <point x="227.08333333333334" y="899.0" type="curve" smooth="yes"/>
      <point x="227.08333333333334" y="544.0" type="line" smooth="yes"/>
      <point x="227.08333333333334" y="258.647"/>
      <point x="331.9646666666667" y="97.56666666666666"/>
      <point x="557.9333333333333" y="97.56666666666666" type="curve" smooth="yes"/>
      <point x="726.3713333333334" y="97.56666666666666"/>
      <point x="814.0566666666666" y="238.0746666666667"/>
      <point x="828.35" y="433.0" type="curve" smooth="yes"/>
      <point x="828.35" y="624.8666666666667" type="line"/>
      <point x="653.3333333333334" y="624.8666666666667" type="line"/>
      <point x="653.3333333333334" y="725.0" type="line"/>
    </contour>
  </outline>
</glyph>
<glyph name="uni20B5" format="2">
  <advance width="1024"/>
  <unicode hex="20B5"/>
  <guideline x="0" y="-125.0" angle="0" identifier="1Am3eQoiKr"/>
  <outline>
    <contour>
      <point x="486.75" y="-190.0" type="line"/>
      <point x="486.75" y="37.0" type="line"/>
      <point x="491.15" y="51.0" type="line"/>
      <point x="491.15" y="708.0" type="line"/>
      <point x="583.9" y="708.0" type="line"/>
      <point x="583.9" y="50.0" type="line"/>
      <point x="588.0166666666667" y="40.0" type="line"/>
      <point x="588.0166666666667" y="-190.0" type="line"/>
    </contour>
    <contour>
      <point x="491.15" y="708.0" type="line"/>
      <point x="491.15" y="1405.0" type="line"/>
      <point x="487.6" y="1415.0" type="line"/>
      <point x="487.6" y="1582.0" type="line"/>
      <point x="586.0333333333333" y="1582.0" type="line"/>
      <point x="586.0333333333333" y="1415.0" type="line"/>
      <point x="583.9" y="1404.15" type="line"/>
      <point x="583.9" y="708.0" type="line"/>
    </contour>
    <contour>
      <point x="821.3333333333334" y="436.0" type="curve" smooth="yes"/>
      <point x="821.3333333333334" y="460.0" type="line"/>
      <point x="940.1" y="458.0" type="line"/>
      <point x="939.8166666666666" y="436.0" type="line" smooth="yes"/>
      <point x="944.797" y="176.33033333333333"/>
      <point x="830.4266666666666" y="-25.0"/>
      <point x="543.6666666666666" y="-25.0" type="curve" smooth="yes"/>
      <point x="247.5266666666667" y="-25.0"/>
      <point x="132.1" y="160.5"/>
      <point x="132.1" y="462.0" type="curve" smooth="yes"/>
      <point x="132.1" y="1002.0" type="line" smooth="yes"/>
      <point x="132.1" y="1288.76"/>
      <point x="248.2066666666667" y="1485.0"/>
      <point x="541.6666666666666" y="1485.0" type="curve" smooth="yes"/>
      <point x="832.4466666666667" y="1485.0"/>
      <point x="935.6829999999999" y="1306.04"/>
      <point x="939.1" y="1030.0" type="curve" smooth="yes"/>
      <point x="940.1" y="1008.0" type="line"/>
      <point x="819.9166666666666" y="1006.0" type="line"/>
      <point x="819.9166666666666" y="1030.0" type="line" smooth="yes"/>
      <point x="824.1153333333333" y="1241.7646666666667"/>
      <point x="746.0686666666668" y="1380.6"/>
      <point x="544.6666666666666" y="1380.6" type="curve" smooth="yes"/>
      <point x="336.16266666666667" y="1380.6"/>
      <point x="252.28333333333333" y="1242.855"/>
      <point x="252.28333333333333" y="1004.0" type="curve" smooth="yes"/>
      <point x="252.28333333333333" y="464.0" type="line" smooth="yes"/>
      <point x="252.28333333333333" y="218.64599999999996"/>
      <point x="341.30133333333333" y="77.56666666666666"/>
      <point x="557.6666666666666" y="77.56666666666666" type="curve" smooth="yes"/>
      <point x="742.676" y="77.56666666666666"/>
      <point x="821.3333333333334" y="208.42333333333335"/>
    </contour>
  </outline>
</glyph>
<glyph name="rupeeIndian" format="2">
  <advance width="939"/>
  <unicode hex="20B9"/>
  <outline>
    <contour>
      <point x="19.0" y="964.0666666666667" type="line"/>
      <point x="19.0" y="1059.65" type="line"/>
      <point x="904.6666666666666" y="1059.65" type="line"/>
      <point x="904.6666666666666" y="964.0666666666667" type="line"/>
    </contour>
    <contour>
      <point x="778.0" y="0.0" type="line"/>
      <point x="632.0" y="267.0" type="line" smooth="yes"/>
      <point x="506.03999999999996" y="497.48"/>
      <point x="401.2666666666667" y="609.1356666666667"/>
      <point x="146.66666666666669" y="619.8333333333334" type="curve" smooth="yes"/>
      <point x="19.0" y="624.8333333333334" type="line"/>
      <point x="19.0" y="716.2666666666667" type="line"/>
      <point x="264.3333333333333" y="716.2666666666667" type="line" smooth="yes"/>
      <point x="479.31399999999996" y="716.2666666666667"/>
      <point x="624.25" y="801.6473333333333"/>
      <point x="624.25" y="1033.3333333333333" type="curve" smooth="yes"/>
      <point x="624.25" y="1202.1733333333332"/>
      <point x="507.47333333333336" y="1357.973"/>
      <point x="278.3333333333333" y="1355.5833333333333" type="curve" smooth="yes"/>
      <point x="19.0" y="1355.5833333333333" type="line"/>
      <point x="19.0" y="1456.0" type="line"/>
      <point x="913.6666666666666" y="1456.0" type="line"/>
      <point x="913.6666666666666" y="1356.5833333333333" type="line"/>
      <point x="585.5" y="1356.5833333333333" type="line"/>
      <point x="508.5" y="1364.5833333333333" type="line"/>
      <point x="510.5" y="1356.5833333333333" type="line"/>
      <point x="662.7463333333334" y="1298.8963333333334"/>
      <point x="733.35" y="1185.8029999999999"/>
      <point x="733.35" y="1033.3333333333333" type="curve" smooth="yes"/>
      <point x="733.35" y="816.3426666666667"/>
      <point x="622.9480000000001" y="676.3423333333334"/>
      <point x="353.1166666666667" y="647.7333333333333" type="curve"/>
      <point x="498.2833333333333" y="616.9133333333333"/>
      <point x="619.428" y="505.1806666666667"/>
      <point x="732.1666666666666" y="317.0" type="curve" smooth="yes"/>
      <point x="902.1666666666666" y="0.0" type="line"/>
    </contour>
  </outline>
</glyph>
<glyph name="ruble" format="2">
  <advance width="1024"/>
  <unicode hex="20BD"/>
  <outline>
    <contour>
      <point x="471.48333333333335" y="615.2666666666667" type="curve" smooth="yes"/>
      <point x="30.0" y="615.2666666666667" type="line"/>
      <point x="30.0" y="712.1333333333333" type="line"/>
      <point x="471.48333333333335" y="712.1333333333333" type="line" smooth="yes"/>
      <point x="707.1893333333334" y="712.1333333333333"/>
      <point x="794.65" y="845.798"/>
      <point x="794.65" y="1031.5666666666666" type="curve" smooth="yes"/>
      <point x="794.65" y="1210.68"/>
      <point x="709.4673333333334" y="1357.442"/>
      <point x="471.48333333333335" y="1354.5833333333333" type="curve" smooth="yes"/>
      <point x="286.05" y="1354.5833333333333" type="line"/>
      <point x="286.05" y="0.0" type="line"/>
      <point x="175.1" y="0.0" type="line"/>
      <point x="175.1" y="1456.0" type="line"/>
      <point x="471.48333333333335" y="1456.0" type="line" smooth="yes"/>
      <point x="766.5513333333334" y="1456.0"/>
      <point x="914.2666666666667" y="1280.815"/>
      <point x="914.2666666666667" y="1032.1333333333334" type="curve" smooth="yes"/>
      <point x="914.2666666666667" y="775.6573333333333"/>
      <point x="766.5513333333334" y="616.696"/>
    </contour>
    <contour>
      <point x="757.8333333333334" y="395.3666666666667" type="line"/>
      <point x="757.8333333333334" y="298.93333333333334" type="line"/>
      <point x="30.0" y="298.93333333333334" type="line"/>
      <point x="30.0" y="395.3666666666667" type="line"/>
    </contour>
  </outline>
</glyph>
<glyph name="bulletoperator" format="2">
  <advance width="1024"/>
  <unicode hex="2219"/>
  <outline>
    <contour>
      <point x="402.4" y="674.0" type="curve" smooth="yes"/>
      <point x="402.4" y="733.4736666666666"/>
      <point x="447.747" y="783.6"/>
      <point x="512.0" y="783.6" type="curve" smooth="yes"/>
      <point x="576.253" y="783.6"/>
      <point x="621.6" y="733.4736666666666"/>
      <point x="621.6" y="674.0" type="curve" smooth="yes"/>
      <point x="621.6" y="615.8663333333334"/>
      <point x="576.253" y="565.4"/>
      <point x="512.0" y="565.4" type="curve" smooth="yes"/>
      <point x="447.747" y="565.4"/>
      <point x="402.4" y="615.8663333333334"/>
    </contour>
  </outline>
</glyph>
<glyph name="brevecombstack.case" format="2">
  <advance width="1024"/>
  <outline>
    <contour>
      <point x="809.8333333333334" y="1912.15" type="curve"/>
      <point x="874.1333333333333" y="1866.9333333333334" type="line"/>
      <point x="824.5533333333333" y="1731.1466666666665"/>
      <point x="692.6990000000001" y="1610.0"/>
      <point x="512.0" y="1610.0" type="curve" smooth="yes"/>
      <point x="335.0753333333333" y="1610.0"/>
      <point x="201.22633333333334" y="1726.4943333333333"/>
      <point x="150.15" y="1867.2166666666667" type="curve"/>
      <point x="216.43333333333334" y="1912.15" type="line"/>
      <point x="274.45533333333333" y="1793.694"/>
      <point x="382.491" y="1715.9666666666667"/>
      <point x="512.7166666666667" y="1715.9666666666667" type="curve" smooth="yes"/>
      <point x="641.7586666666666" y="1715.9666666666667"/>
      <point x="749.8906666666667" y="1792.1753333333331"/>
    </contour>
  </outline>
</glyph>
<glyph name="cedillacomb.case" format="2">
  <advance width="1024"/>
  <outline>
    <contour>
      <point x="439.31666666666666" y="39.166666666666664" type="line"/>
      <point x="541.7666666666667" y="39.166666666666664" type="line"/>
      <point x="513.05" y="-90.13333333333334" type="line"/>
      <point x="621.791" y="-108.89333333333335"/>
      <point x="697.4166666666666" y="-165.95433333333335"/>
      <point x="697.4166666666666" y="-256.65" type="curve" smooth="yes"/>
      <point x="697.4166666666666" y="-382.18566666666663"/>
      <point x="571.7666666666668" y="-469.8833333333333"/>
      <point x="339.5" y="-469.8833333333333" type="curve"/>
      <point x="335.3666666666667" y="-384.76666666666665" type="line"/>
      <point x="478.166" y="-382.26533333333333"/>
      <point x="576.4" y="-338.31300000000005"/>
      <point x="576.4" y="-258.65" type="curve" smooth="yes"/>
      <point x="576.4" y="-189.14866666666666"/>
      <point x="527.6610000000001" y="-170.257"/>
      <point x="402.6166666666667" y="-159.91666666666666" type="curve"/>
    </contour>
  </outline>
</glyph>
<glyph name="dieresiscomb.case" format="2">
  <advance width="1024"/>
  <outline>
    <contour>
      <point x="189.65" y="1764.7833333333333" type="curve" smooth="yes"/>
      <point x="189.65" y="1824.0783333333334"/>
      <point x="222.32533333333333" y="1856.5666666666666"/>
      <point x="282.0" y="1856.5666666666666" type="curve" smooth="yes"/>
      <point x="338.615" y="1856.5666666666666"/>
      <point x="374.35" y="1819.6786666666667"/>
      <point x="374.35" y="1764.7833333333333" type="curve" smooth="yes"/>
      <point x="374.35" y="1706.8283333333334"/>
      <point x="343.0146666666667" y="1674.0"/>
      <point x="282.0" y="1674.0" type="curve" smooth="yes"/>
      <point x="225.385" y="1674.0"/>
      <point x="189.65" y="1709.888"/>
    </contour>
    <contour>
      <point x="649.65" y="1764.7833333333333" type="curve" smooth="yes"/>
      <point x="649.65" y="1824.0783333333334"/>
      <point x="682.3253333333333" y="1856.5666666666666"/>
      <point x="742.0" y="1856.5666666666666" type="curve" smooth="yes"/>
      <point x="798.615" y="1856.5666666666666"/>
      <point x="834.35" y="1819.6786666666667"/>
      <point x="834.35" y="1764.7833333333333" type="curve" smooth="yes"/>
      <point x="834.35" y="1706.8283333333334"/>
      <point x="803.0146666666666" y="1674.0"/>
      <point x="742.0" y="1674.0" type="curve" smooth="yes"/>
      <point x="685.385" y="1674.0"/>
      <point x="649.65" y="1709.888"/>
    </contour>
  </outline>
</glyph>
<glyph name="engtail" format="2">
  <advance width="629"/>
  <outline>
    <contour>
      <point x="442.5357142857143" y="132.66666666666666" type="line"/>
      <point x="508.3833333333333" y="132.66666666666666" type="line"/>
      <point x="508.3833333333333" y="-105.41666666666667" type="line" smooth="yes"/>
      <point x="508.3833333333333" y="-316.24333333333334"/>
      <point x="429.5543333333334" y="-423.65"/>
      <point x="269.0" y="-423.65" type="curve" smooth="yes"/>
      <point x="210.9333333333333" y="-423.65"/>
      <point x="145.2433333333333" y="-402.0483333333333"/>
      <point x="110.85" y="-375.5833333333333" type="curve"/>
      <point x="128.7" y="-296.2833333333333" type="line"/>
      <point x="161.93200000000002" y="-317.6116666666667"/>
      <point x="240.83731559291928" y="-330.01666666666665"/>
      <point x="281.3723155929193" y="-330.01666666666665" type="curve" smooth="yes"/>
      <point x="372.02331559291935" y="-330.01666666666665"/>
      <point x="400.4190476190476" y="-276.8693333333334"/>
      <point x="400.4190476190476" y="-125.58333333333334" type="curve" smooth="yes"/>
      <point x="400.4190476190476" y="-63.12338095238095"/>
      <point x="400.4190476190476" y="187.30833333333334"/>
      <point x="400.4190476190476" y="114.16666666666666" type="curve"/>
    </contour>
  </outline>
</glyph>
<glyph name="tildecomb.case" format="2">
  <advance width="1024"/>
  <outline>
    <contour>
      <point x="163.05" y="1760.5666666666666" type="line"/>
      <point x="208.78866666666667" y="1847.2646666666667"/>
      <point x="293.62333333333333" y="1903.15"/>
      <point x="387.2" y="1903.15" type="curve" smooth="yes"/>
      <point x="444.03833333333336" y="1903.15"/>
      <point x="493.53833333333336" y="1878.1119999999999"/>
      <point x="545.0166666666667" y="1844.4333333333334" type="curve" smooth="yes"/>
      <point x="589.058" y="1816.472"/>
      <point x="647.4796666666666" y="1784.7666666666667"/>
      <point x="701.8166666666667" y="1784.7666666666667" type="curve" smooth="yes"/>
      <point x="757.6946666666666" y="1784.7666666666667"/>
      <point x="811.0910000000001" y="1827.8043333333333"/>
      <point x="843.05" y="1877.1833333333334" type="curve"/>
      <point x="897.4333333333333" y="1816.55" type="line"/>
      <point x="855.5583333333333" y="1727.7973333333332"/>
      <point x="778.4596666666666" y="1679.95"/>
      <point x="695.0" y="1679.95" type="curve" smooth="yes"/>
      <point x="616.2973333333333" y="1679.95"/>
      <point x="549.2196666666667" y="1718.3883333333335"/>
      <point x="507.3" y="1743.0666666666666" type="curve" smooth="yes"/>
      <point x="460.9806666666667" y="1770.8046666666667"/>
      <point x="410.7286666666667" y="1798.9"/>
      <point x="370.35" y="1798.9" type="curve" smooth="yes"/>
      <point x="305.092" y="1798.9"/>
      <point x="242.14600000000002" y="1737.2666666666667"/>
      <point x="217.26666666666665" y="1697.0666666666666" type="curve"/>
    </contour>
  </outline>
</glyph>
<glyph name="tildecombstack.case" format="2">
  <advance width="1024"/>
  <outline>
    <contour>
      <point x="182.31666666666666" y="1764.5333333333333" type="line"/>
      <point x="229.19433333333336" y="1852.3703333333333"/>
      <point x="307.0533333333333" y="1896.9166666666667"/>
      <point x="396.8333333333333" y="1896.9166666666667" type="curve" smooth="yes"/>
      <point x="449.49533333333335" y="1896.9166666666667"/>
      <point x="498.083" y="1873.9526666666666"/>
      <point x="547.2833333333333" y="1841.0333333333333" type="curve" smooth="yes"/>
      <point x="591.3246666666666" y="1811.5533333333333"/>
      <point x="642.408" y="1786.1833333333334"/>
      <point x="691.05" y="1786.1833333333334" type="curve" smooth="yes"/>
      <point x="744.65" y="1786.1833333333334"/>
      <point x="788.3393333333333" y="1824.4043333333334"/>
      <point x="818.4" y="1873.7833333333333" type="curve"/>
      <point x="880.15" y="1811.45" type="line"/>
      <point x="842.0716666666667" y="1725.7346666666667"/>
      <point x="771.2856666666667" y="1681.3666666666666"/>
      <point x="687.0666666666667" y="1681.3666666666666" type="curve" smooth="yes"/>
      <point x="609.8826666666666" y="1681.3666666666666"/>
      <point x="549.3103333333333" y="1716.031"/>
      <point x="508.15" y="1739.95" type="curve" smooth="yes"/>
      <point x="463.729" y="1766.1693333333333"/>
      <point x="417.51166666666666" y="1794.3666666666666"/>
      <point x="380.55" y="1794.3666666666666" type="curve" smooth="yes"/>
      <point x="321.7463333333334" y="1794.3666666666666"/>
      <point x="266.3313333333333" y="1737.5839999999998"/>
      <point x="246.63333333333333" y="1705.0666666666666" type="curve"/>
    </contour>
  </outline>
</glyph>
<glyph name="zerosuperior" format="2">
  <advance width="642"/>
  <outline>
    <contour>
      <point x="69.15" y="979.0" type="curve" smooth="yes"/>
      <point x="69.15" y="1168.3333333333333" type="line" smooth="yes"/>
      <point x="69.15" y="1362.7226666666668"/>
      <point x="161.76624183005686" y="1481.6666666666667"/>
      <point x="322.19183006535667" y="1481.6666666666667" type="curve" smooth="yes"/>
      <point x="482.2596470588338" y="1481.6666666666667"/>
      <point x="572.62483660131" y="1362.7226666666668"/>
      <point x="572.62483660131" y="1168.3333333333333" type="curve" smooth="yes"/>
      <point x="572.62483660131" y="979.0" type="line" smooth="yes"/>
      <point x="572.62483660131" y="784.6106666666666"/>
      <point x="482.42686928105513" y="665.6666666666666"/>
      <point x="321.7" y="665.6666666666666" type="curve" smooth="yes"/>
      <point x="161.93346405227814" y="665.6666666666666"/>
      <point x="69.15" y="784.6106666666666"/>
    </contour>
    <contour>
      <point x="178.50196078428002" y="973.6666666666666" type="line" smooth="yes"/>
      <point x="178.50196078428002" y="845.3953856209114"/>
      <point x="216.21490849672358" y="762.9336601307133"/>
      <point x="322.19183006535667" y="762.9336601307133" type="curve" smooth="yes"/>
      <point x="428.47003267974515" y="762.9336601307133"/>
      <point x="463.2728758169583" y="845.3953856209114"/>
      <point x="463.2728758169583" y="973.6666666666666" type="curve" smooth="yes"/>
      <point x="463.2728758169583" y="1173.6666666666667" type="line" smooth="yes"/>
      <point x="463.2728758169583" y="1301.937947712422"/>
      <point x="427.97820261438847" y="1384.39967320262"/>
      <point x="321.7" y="1384.39967320262" type="curve" smooth="yes"/>
      <point x="216.38213071894484" y="1384.39967320262"/>
      <point x="178.50196078428002" y="1301.937947712422"/>
      <point x="178.50196078428002" y="1173.6666666666667" type="curve" smooth="yes"/>
    </contour>
  </outline>
</glyph>
